<svg width="33" height="33" viewBox="0 0 33 33" fill="none" xmlns="http://www.w3.org/2000/svg">
<path fill-rule="evenodd" clip-rule="evenodd" d="M13.5833 1.91667C13.5836 1.61253 13.4887 1.31592 13.3121 1.06834C13.1354 0.820763 12.8858 0.634608 12.5981 0.535928C12.3104 0.437248 11.9991 0.43098 11.7077 0.518003C11.4163 0.605025 11.1593 0.780983 10.9729 1.02125L0.764538 14.1463C0.565395 14.4023 0.457275 14.7173 0.457275 15.0417C0.457275 15.366 0.565395 15.6811 0.764538 15.9371L10.9729 29.0621C11.1593 29.3024 11.4163 29.4783 11.7077 29.5653C11.9991 29.6524 12.3104 29.6461 12.5981 29.5474C12.8858 29.4487 13.1354 29.2626 13.3121 29.015C13.4887 28.7674 13.5836 28.4708 13.5833 28.1667V22.3479C21.4277 22.5113 25.196 24.0002 27.0889 25.619C28.8885 27.1575 29.2181 28.9673 29.5608 30.8631L29.6497 31.3517C29.7152 31.7012 29.9061 32.0149 30.1866 32.2335C30.4671 32.4522 30.8178 32.5608 31.1728 32.5389C31.5278 32.517 31.8626 32.3662 32.1141 32.1148C32.3657 31.8634 32.5167 31.5287 32.5387 31.1738C32.7881 27.1663 32.4133 21.3592 29.5827 16.5015C26.8352 11.7867 21.887 8.16125 13.5833 7.78208V1.91667Z" fill="#1C1C1C" fill-opacity="0.95"/>
</svg>
