<svg width="24" height="40" viewBox="0 0 24 40" fill="none" xmlns="http://www.w3.org/2000/svg">
<path d="M1.67505 22.0707L18.1834 38.5499C18.4545 38.8233 18.7771 39.0403 19.1325 39.1883C19.488 39.3364 19.8692 39.4127 20.2542 39.4127C20.6392 39.4127 21.0205 39.3364 21.3759 39.1883C21.7313 39.0403 22.0539 38.8233 22.325 38.5499C22.8683 38.0034 23.1732 37.2642 23.1732 36.4937C23.1732 35.7231 22.8683 34.9839 22.325 34.4374L7.88755 19.8541L22.325 5.41658C22.8683 4.87011 23.1732 4.13087 23.1732 3.36033C23.1732 2.58979 22.8683 1.85056 22.325 1.30408C22.0549 1.02849 21.7328 0.809246 21.3773 0.659046C21.0218 0.50885 20.6401 0.430687 20.2542 0.429085C19.8683 0.430687 19.4866 0.50885 19.1311 0.659046C18.7756 0.809246 18.4535 1.02849 18.1834 1.30408L1.67505 17.7832C1.37899 18.0564 1.14272 18.3879 0.981113 18.7568C0.81951 19.1258 0.736078 19.5242 0.736078 19.927C0.736078 20.3298 0.81951 20.7282 0.981113 21.0972C1.14272 21.4661 1.37899 21.7976 1.67505 22.0707Z" fill="#333333"/>
</svg>
