<svg width="24" height="40" viewBox="0 0 24 40" fill="none" xmlns="http://www.w3.org/2000/svg">
<path d="M22.325 17.9293L5.81665 1.45009C5.54551 1.17671 5.22293 0.959729 4.8675 0.811654C4.51208 0.663579 4.13086 0.587341 3.74582 0.587341C3.36079 0.587341 2.97956 0.663579 2.62414 0.811654C2.26872 0.959729 1.94613 1.17671 1.67499 1.45009C1.13176 1.99656 0.826843 2.73579 0.826843 3.50634C0.826843 4.27688 1.13176 5.01611 1.67499 5.56259L16.1125 20.1459L1.67499 34.5834C1.13176 35.1299 0.826843 35.8691 0.826843 36.6397C0.826843 37.4102 1.13176 38.1494 1.67499 38.6959C1.94511 38.9715 2.26724 39.1908 2.62271 39.341C2.97818 39.4911 3.35992 39.5693 3.74582 39.5709C4.13172 39.5693 4.51346 39.4911 4.86893 39.341C5.2244 39.1908 5.54653 38.9715 5.81665 38.6959L22.325 22.2168C22.621 21.9436 22.8573 21.6121 23.0189 21.2432C23.1805 20.8742 23.264 20.4758 23.264 20.073C23.264 19.6702 23.1805 19.2718 23.0189 18.9028C22.8573 18.5339 22.621 18.2024 22.325 17.9293Z" fill="#333333"/>
</svg>
