<svg width="33" height="33" viewBox="0 0 33 33" fill="none" xmlns="http://www.w3.org/2000/svg">
<rect width="33" height="33" fill="#E5E5E5"/>
<rect width="1920" height="1116" transform="translate(-331 -169)" fill="white"/>
<path fill-rule="evenodd" clip-rule="evenodd" d="M13.5833 2.381C13.5836 2.07956 13.4887 1.78559 13.3121 1.54021C13.1354 1.29483 12.8858 1.11033 12.5981 1.01252C12.3104 0.914718 11.9991 0.908506 11.7077 0.994756C11.4163 1.08101 11.1593 1.2554 10.9729 1.49354L0.764538 14.502C0.565395 14.7557 0.457275 15.068 0.457275 15.3894C0.457275 15.7109 0.565395 16.0232 0.764538 16.2769L10.9729 29.2853C11.1593 29.5235 11.4163 29.6979 11.7077 29.7841C11.9991 29.8704 12.3104 29.8642 12.5981 29.7664C12.8858 29.6685 13.1354 29.484 13.3121 29.2387C13.4887 28.9933 13.5836 28.6993 13.5833 28.3979V22.6308C21.4277 22.7927 25.196 24.2684 27.0889 25.8728C28.8885 27.3977 29.2181 29.1914 29.5608 31.0704L29.6497 31.5546C29.7152 31.9011 29.9061 32.2119 30.1866 32.4286C30.4671 32.6453 30.8178 32.7529 31.1728 32.7313C31.5278 32.7096 31.8626 32.5601 32.1141 32.3109C32.3656 32.0618 32.5167 31.7301 32.5387 31.3783C32.7881 27.4063 32.4133 21.6508 29.5827 16.8363C26.8352 12.1633 21.887 8.57012 13.5833 8.19433V2.381Z" fill="#1C1C1C" fill-opacity="0.95"/>
</svg>
