<svg width="12" height="12" viewBox="0 0 12 12" fill="none" xmlns="http://www.w3.org/2000/svg">
<path d="M10.7965 3.6015C10.7395 3.3902 10.6282 3.19751 10.4737 3.04259C10.3191 2.88767 10.1267 2.77593 9.91548 2.7185C9.13248 2.5035 5.99998 2.5 5.99998 2.5C5.99998 2.5 2.86798 2.4965 2.08448 2.702C1.87344 2.76208 1.68139 2.87539 1.52676 3.03107C1.37214 3.18675 1.26012 3.37956 1.20148 3.591C0.994982 4.374 0.992982 5.998 0.992982 5.998C0.992982 5.998 0.990982 7.63 1.19598 8.405C1.31098 8.8335 1.64848 9.172 2.07748 9.2875C2.86848 9.5025 5.99248 9.506 5.99248 9.506C5.99248 9.506 9.12498 9.5095 9.90798 9.3045C10.1192 9.24717 10.3119 9.1357 10.4668 8.98109C10.6218 8.82649 10.7337 8.63412 10.7915 8.423C10.9985 7.6405 11 6.017 11 6.017C11 6.017 11.01 4.3845 10.7965 3.6015ZM4.99798 7.5025L5.00048 4.5025L7.60398 6.005L4.99798 7.5025Z" fill="white"/>
</svg>
