<svg width="20" height="20" viewBox="0 0 20 20" fill="none" xmlns="http://www.w3.org/2000/svg">
<path d="M16.6667 16.6667H3.33335C2.89133 16.6667 2.4674 16.4911 2.15484 16.1786C1.84228 15.866 1.66669 15.4421 1.66669 15V4.92754C1.68538 4.4982 1.86919 4.09267 2.17975 3.79562C2.49031 3.49858 2.90361 3.33297 3.33335 3.33337H16.6667C17.1087 3.33337 17.5326 3.50897 17.8452 3.82153C18.1578 4.13409 18.3334 4.55801 18.3334 5.00004V15C18.3334 15.4421 18.1578 15.866 17.8452 16.1786C17.5326 16.4911 17.1087 16.6667 16.6667 16.6667ZM3.33335 6.55671V15H16.6667V6.55671L10 11L3.33335 6.55671ZM4.00002 5.00004L10 9.00004L16 5.00004H4.00002Z" fill="white"/>
</svg>
