<svg width="12" height="12" viewBox="0 0 12 12" fill="none" xmlns="http://www.w3.org/2000/svg">
<path d="M1.73401 1.19995H10.272C10.566 1.19995 10.8 1.43395 10.8 1.72795V10.272C10.8 10.56 10.566 10.8 10.272 10.8H7.82401V7.07995H9.07201L9.25801 5.63395H7.82401V4.70995C7.82401 4.28995 7.94401 4.00195 8.54401 4.00195H9.31201V2.70595C9.18001 2.68795 8.72401 2.65195 8.19601 2.65195C7.08601 2.65195 6.33001 3.32395 6.33001 4.56595V5.63395H5.07601V7.07995H6.33001V10.8H1.73401C1.59342 10.8 1.4585 10.7445 1.35852 10.6457C1.25855 10.5468 1.20159 10.4125 1.20001 10.272V1.72795C1.20001 1.43395 1.44001 1.19995 1.73401 1.19995Z" fill="white"/>
</svg>
