<svg width="27" height="27" viewBox="0 0 27 27" fill="none" xmlns="http://www.w3.org/2000/svg">
<rect width="27" height="27" fill="#E5E5E5"/>
<g clip-path="url(#clip0_0_1)">
<rect width="2233" height="2980" transform="translate(-1505 -124)" fill="#C4C4C4"/>
<g filter="url(#filter0_i_0_1)">
<path d="M-275 6C-275 3.23858 -272.761 1 -270 1H1V26H-270C-272.761 26 -275 23.7614 -275 21V6Z" fill="white"/>
</g>
<path d="M-275 6C-275 3.23858 -272.761 1 -270 1H1V26H-270C-272.761 26 -275 23.7614 -275 21V6Z" stroke="#C4C4C4"/>
<path d="M1 1H21C23.7614 1 26 3.23858 26 6V21C26 23.7614 23.7614 26 21 26H1V1Z" fill="white" stroke="#C4C4C4"/>
<path d="M19.5937 18.931L16.0537 15.391C16.9044 14.3697 17.3286 13.0598 17.238 11.7337C17.1475 10.4077 16.5493 9.16757 15.5677 8.27137C14.5861 7.37518 13.2968 6.89192 11.968 6.92211C10.6392 6.9523 9.37321 7.49363 8.43336 8.43348C7.49351 9.37333 6.95218 10.6393 6.92199 11.9681C6.8918 13.2969 7.37506 14.5862 8.27125 15.5678C9.16744 16.5494 10.4076 17.1476 11.7336 17.2382C13.0597 17.3287 14.3696 16.9045 15.3909 16.0538L18.9309 19.5938L19.5937 18.931ZM7.87492 12.0938C7.87492 11.2594 8.12234 10.4437 8.5859 9.74998C9.04947 9.05621 9.70835 8.51548 10.4792 8.19617C11.2501 7.87687 12.0983 7.79332 12.9167 7.9561C13.7351 8.11888 14.4868 8.52068 15.0768 9.11068C15.6668 9.70069 16.0686 10.4524 16.2314 11.2708C16.3941 12.0891 16.3106 12.9374 15.9913 13.7082C15.672 14.4791 15.1312 15.138 14.4375 15.6016C13.7437 16.0651 12.9281 16.3125 12.0937 16.3125C10.9752 16.3113 9.90283 15.8664 9.11193 15.0755C8.32103 14.2846 7.87616 13.2123 7.87492 12.0938Z" fill="#1C1C1C" fill-opacity="0.95"/>
<rect x="-295.5" y="-105.5" width="341" height="151" rx="4.5" stroke="#7B61FF" stroke-dasharray="10 5"/>
</g>
<defs>
<filter id="filter0_i_0_1" x="-275.5" y="0.5" width="277" height="29" filterUnits="userSpaceOnUse" color-interpolation-filters="sRGB">
<feFlood flood-opacity="0" result="BackgroundImageFix"/>
<feBlend mode="normal" in="SourceGraphic" in2="BackgroundImageFix" result="shape"/>
<feColorMatrix in="SourceAlpha" type="matrix" values="0 0 0 0 0 0 0 0 0 0 0 0 0 0 0 0 0 0 127 0" result="hardAlpha"/>
<feOffset dy="3"/>
<feGaussianBlur stdDeviation="1.5"/>
<feComposite in2="hardAlpha" operator="arithmetic" k2="-1" k3="1"/>
<feColorMatrix type="matrix" values="0 0 0 0 0 0 0 0 0 0 0 0 0 0 0 0 0 0 0.25 0"/>
<feBlend mode="normal" in2="shape" result="effect1_innerShadow_0_1"/>
</filter>
<clipPath id="clip0_0_1">
<rect width="2233" height="2980" fill="white" transform="translate(-1505 -124)"/>
</clipPath>
</defs>
</svg>
